<svg xmlns="http://www.w3.org/2000/svg" tabindex="0" version="1.1" viewBox="15.696449279785156 -15.202360153198242 854.1337280273438 625.202392578125"><g transform="scale(1.3054205607476637) translate(9.216494845360785,-12)"><g transform="translate(72, 33)"><rect x="0" y="0" width="491" height="424.8333333333333" style="fill:rgb(221, 221, 255);stroke:rgb(68, 68, 136);"/><text transform="translate(227.5, -21)" style="dominant-baseline:hanging;font-family:sans-serif;font-size:13.3333px;perspective-origin:16.2812px 0px;stroke:rgb(0, 0, 0);stroke-width:0px;">Mux3</text><g transform="translate(-5, 384)"><rect x="0" y="0" width="5" height="5" style="fill:rgb(102, 102, 204);stroke:rgb(68, 68, 136);"/><text transform="translate(-46, 6)" style="dominant-baseline:hanging;font-family:sans-serif;font-size:13.3333px;perspective-origin:15.2969px 0px;stroke:rgb(0, 0, 0);stroke-width:0px;">clock</text></g><g transform="translate(-5, 352)"><rect x="0" y="0" width="5" height="5" style="fill:rgb(102, 102, 204);stroke:rgb(68, 68, 136);"/><text transform="translate(-46, 6)" style="dominant-baseline:hanging;font-family:sans-serif;font-size:13.3333px;perspective-origin:14.875px 0px;stroke:rgb(0, 0, 0);stroke-width:0px;">reset</text></g><g transform="translate(-5, 97.25)"><rect x="0" y="0" width="5" height="5" style="fill:rgb(102, 102, 204);stroke:rgb(68, 68, 136);"/><text transform="translate(-55, 6)" style="dominant-baseline:hanging;font-family:sans-serif;font-size:13.3333px;perspective-origin:17.7812px 0px;stroke:rgb(0, 0, 0);stroke-width:0px;">io_in0</text></g><g transform="translate(-5, 65.25)"><rect x="0" y="0" width="5" height="5" style="fill:rgb(102, 102, 204);stroke:rgb(68, 68, 136);"/><text transform="translate(-55, 6)" style="dominant-baseline:hanging;font-family:sans-serif;font-size:13.3333px;perspective-origin:17.7812px 0px;stroke:rgb(0, 0, 0);stroke-width:0px;">io_in1</text></g><g transform="translate(-5, 20.5)"><rect x="0" y="0" width="5" height="5" style="fill:rgb(102, 102, 204);stroke:rgb(68, 68, 136);"/><text transform="translate(-55, 6)" style="dominant-baseline:hanging;font-family:sans-serif;font-size:13.3333px;perspective-origin:17.7812px 0px;stroke:rgb(0, 0, 0);stroke-width:0px;">io_in2</text></g><g transform="translate(-5, 135.41666666666666)"><rect x="0" y="0" width="5" height="5" style="fill:rgb(102, 102, 204);stroke:rgb(68, 68, 136);"/><text transform="translate(-55, 6)" style="dominant-baseline:hanging;font-family:sans-serif;font-size:13.3333px;perspective-origin:17.4062px 0px;stroke:rgb(0, 0, 0);stroke-width:0px;">io_sel</text></g><g transform="translate(491, 390.8333333333333)"><rect x="0" y="0" width="5" height="5" style="fill:rgb(102, 102, 204);stroke:rgb(68, 68, 136);"/><text transform="translate(6, 6)" style="dominant-baseline:hanging;font-family:sans-serif;font-size:13.3333px;perspective-origin:33.3281px 0px;stroke:rgb(0, 0, 0);stroke-width:0px;">io_outIEEE</text></g><g transform="translate(297.5, 251.75)"><rect x="0" y="0" width="30" height="40" style="fill:rgb(221, 221, 255);stroke:rgb(68, 68, 136);"/><text transform="translate(-7.5, -21)" style="dominant-baseline:hanging;font-family:sans-serif;font-size:13.3333px;perspective-origin:19.4688px 0px;stroke:rgb(0, 0, 0);stroke-width:0px;">out_W</text><text transform="translate(5, 12)" style="dominant-baseline:hanging;font-family:sans-serif;font-size:13.3333px;perspective-origin:9.625px 0px;stroke:rgb(0, 0, 0);stroke-width:0px;">reg</text><g transform="translate(-5, 17.5)"><rect x="0" y="0" width="5" height="5" style="fill:rgb(102, 102, 204);stroke:rgb(68, 68, 136);"/></g><g transform="translate(30, 17.5)"><rect x="0" y="0" width="5" height="5" style="fill:rgb(102, 102, 204);stroke:rgb(68, 68, 136);"/></g></g><g transform="translate(109, 288.5)"><rect x="0" y="0" width="32" height="56" style="fill:rgb(221, 221, 255);stroke:rgb(68, 68, 136);"/><text transform="translate(7, -21)" style="dominant-baseline:hanging;font-family:sans-serif;font-size:13.3333px;perspective-origin:7.40625px 0px;stroke:rgb(0, 0, 0);stroke-width:0px;">eq</text><g transform="translate(-5, 35.666666666666664)"><rect x="0" y="0" width="5" height="5" style="fill:rgb(102, 102, 204);stroke:rgb(68, 68, 136);"/><text transform="translate(6, -5.5)" style="dominant-baseline:hanging;font-family:sans-serif;font-size:13.3333px;perspective-origin:8.89062px 0px;stroke:rgb(0, 0, 0);stroke-width:0px;">in2</text></g><g transform="translate(-5, 15.333333333333332)"><rect x="0" y="0" width="5" height="5" style="fill:rgb(102, 102, 204);stroke:rgb(68, 68, 136);"/><text transform="translate(6, -5.5)" style="dominant-baseline:hanging;font-family:sans-serif;font-size:13.3333px;perspective-origin:3.70312px 0px;stroke:rgb(0, 0, 0);stroke-width:0px;">0</text></g><g transform="translate(32, 25.5)"><rect x="0" y="0" width="5" height="5" style="fill:rgb(102, 102, 204);stroke:rgb(68, 68, 136);"/></g></g><g transform="translate(47, 99.75)"><rect x="0" y="0" width="32" height="56" style="fill:rgb(221, 221, 255);stroke:rgb(68, 68, 136);"/><text transform="translate(7, -21)" style="dominant-baseline:hanging;font-family:sans-serif;font-size:13.3333px;perspective-origin:7.40625px 0px;stroke:rgb(0, 0, 0);stroke-width:0px;">eq</text><g transform="translate(-5, 35.666666666666664)"><rect x="0" y="0" width="5" height="5" style="fill:rgb(102, 102, 204);stroke:rgb(68, 68, 136);"/><text transform="translate(6, -5.5)" style="dominant-baseline:hanging;font-family:sans-serif;font-size:13.3333px;perspective-origin:8.89062px 0px;stroke:rgb(0, 0, 0);stroke-width:0px;">in2</text></g><g transform="translate(-5, 15.333333333333332)"><rect x="0" y="0" width="5" height="5" style="fill:rgb(102, 102, 204);stroke:rgb(68, 68, 136);"/><text transform="translate(6, -5.5)" style="dominant-baseline:hanging;font-family:sans-serif;font-size:13.3333px;perspective-origin:3.70312px 0px;stroke:rgb(0, 0, 0);stroke-width:0px;">1</text></g><g transform="translate(32, 25.5)"><rect x="0" y="0" width="5" height="5" style="fill:rgb(102, 102, 204);stroke:rgb(68, 68, 136);"/></g></g><g transform="translate(360, 327.3333333333333)"><rect x="0" y="0" width="32" height="56" style="fill:rgb(221, 221, 255);stroke:rgb(68, 68, 136);"/><text transform="translate(7, -21)" style="dominant-baseline:hanging;font-family:sans-serif;font-size:13.3333px;perspective-origin:7.40625px 0px;stroke:rgb(0, 0, 0);stroke-width:0px;">eq</text><g transform="translate(-5, 35.666666666666664)"><rect x="0" y="0" width="5" height="5" style="fill:rgb(102, 102, 204);stroke:rgb(68, 68, 136);"/><text transform="translate(6, -5.5)" style="dominant-baseline:hanging;font-family:sans-serif;font-size:13.3333px;perspective-origin:8.89062px 0px;stroke:rgb(0, 0, 0);stroke-width:0px;">in2</text></g><g transform="translate(-5, 15.333333333333332)"><rect x="0" y="0" width="5" height="5" style="fill:rgb(102, 102, 204);stroke:rgb(68, 68, 136);"/><text transform="translate(6, -5.5)" style="dominant-baseline:hanging;font-family:sans-serif;font-size:13.3333px;perspective-origin:3.70312px 0px;stroke:rgb(0, 0, 0);stroke-width:0px;">2</text></g><g transform="translate(32, 25.5)"><rect x="0" y="0" width="5" height="5" style="fill:rgb(102, 102, 204);stroke:rgb(68, 68, 136);"/></g></g><g transform="translate(296.5, 127.58333333333334)"><rect x="0" y="0" width="32" height="56" style="fill:rgb(221, 221, 255);stroke:rgb(68, 68, 136);"/><text transform="translate(7, -21)" style="dominant-baseline:hanging;font-family:sans-serif;font-size:13.3333px;perspective-origin:7.40625px 0px;stroke:rgb(0, 0, 0);stroke-width:0px;">eq</text><g transform="translate(-5, 35.666666666666664)"><rect x="0" y="0" width="5" height="5" style="fill:rgb(102, 102, 204);stroke:rgb(68, 68, 136);"/><text transform="translate(6, -5.5)" style="dominant-baseline:hanging;font-family:sans-serif;font-size:13.3333px;perspective-origin:8.89062px 0px;stroke:rgb(0, 0, 0);stroke-width:0px;">in2</text></g><g transform="translate(-5, 15.333333333333332)"><rect x="0" y="0" width="5" height="5" style="fill:rgb(102, 102, 204);stroke:rgb(68, 68, 136);"/><text transform="translate(6, -5.5)" style="dominant-baseline:hanging;font-family:sans-serif;font-size:13.3333px;perspective-origin:3.70312px 0px;stroke:rgb(0, 0, 0);stroke-width:0px;">3</text></g><g transform="translate(32, 25.5)"><rect x="0" y="0" width="5" height="5" style="fill:rgb(102, 102, 204);stroke:rgb(68, 68, 136);"/></g></g><g transform="translate(360, 112.33333333333334)"><rect x="0" y="0" width="32" height="56" style="fill:rgb(221, 221, 255);stroke:rgb(68, 68, 136);"/><text transform="translate(2.5, -21)" style="dominant-baseline:hanging;font-family:sans-serif;font-size:13.3333px;perspective-origin:12.7031px 0px;stroke:rgb(0, 0, 0);stroke-width:0px;">mux</text><g transform="translate(-5, 40.75)"><rect x="0" y="0" width="5" height="5" style="fill:rgb(102, 102, 204);stroke:rgb(68, 68, 136);"/><text transform="translate(6, -5.5)" style="dominant-baseline:hanging;font-family:sans-serif;font-size:13.3333px;perspective-origin:8.51562px 0px;stroke:rgb(0, 0, 0);stroke-width:0px;">sel</text></g><g transform="translate(-5, 25.5)"><rect x="0" y="0" width="5" height="5" style="fill:rgb(102, 102, 204);stroke:rgb(68, 68, 136);"/><text transform="translate(6, -5.5)" style="dominant-baseline:hanging;font-family:sans-serif;font-size:13.3333px;perspective-origin:8.89062px 0px;stroke:rgb(0, 0, 0);stroke-width:0px;">in2</text></g><g transform="translate(-5, 10.25)"><rect x="0" y="0" width="5" height="5" style="fill:rgb(102, 102, 204);stroke:rgb(68, 68, 136);"/><text transform="translate(6, -5.5)" style="dominant-baseline:hanging;font-family:sans-serif;font-size:13.3333px;perspective-origin:8.89062px 0px;stroke:rgb(0, 0, 0);stroke-width:0px;">in1</text></g><g transform="translate(32, 25.5)"><rect x="0" y="0" width="5" height="5" style="fill:rgb(102, 102, 204);stroke:rgb(68, 68, 136);"/></g></g><g transform="translate(308.5, 60.58333333333334)"><rect x="0" y="0" width="19" height="26" style="fill:rgb(221, 221, 255);stroke:rgb(68, 68, 136);"/><text transform="translate(5, 5)" style="dominant-baseline:hanging;font-family:sans-serif;font-size:13.3333px;perspective-origin:3.70312px 0px;stroke:rgb(0, 0, 0);stroke-width:0px;">0</text></g><g transform="translate(422, 112.33333333333334)"><rect x="0" y="0" width="32" height="56" style="fill:rgb(221, 221, 255);stroke:rgb(68, 68, 136);"/><text transform="translate(2.5, -21)" style="dominant-baseline:hanging;font-family:sans-serif;font-size:13.3333px;perspective-origin:12.7031px 0px;stroke:rgb(0, 0, 0);stroke-width:0px;">mux</text><g transform="translate(-5, 40.75)"><rect x="0" y="0" width="5" height="5" style="fill:rgb(102, 102, 204);stroke:rgb(68, 68, 136);"/><text transform="translate(6, -5.5)" style="dominant-baseline:hanging;font-family:sans-serif;font-size:13.3333px;perspective-origin:8.51562px 0px;stroke:rgb(0, 0, 0);stroke-width:0px;">sel</text></g><g transform="translate(-5, 25.5)"><rect x="0" y="0" width="5" height="5" style="fill:rgb(102, 102, 204);stroke:rgb(68, 68, 136);"/><text transform="translate(6, -5.5)" style="dominant-baseline:hanging;font-family:sans-serif;font-size:13.3333px;perspective-origin:8.89062px 0px;stroke:rgb(0, 0, 0);stroke-width:0px;">in2</text></g><g transform="translate(-5, 10.25)"><rect x="0" y="0" width="5" height="5" style="fill:rgb(102, 102, 204);stroke:rgb(68, 68, 136);"/><text transform="translate(6, -5.5)" style="dominant-baseline:hanging;font-family:sans-serif;font-size:13.3333px;perspective-origin:8.89062px 0px;stroke:rgb(0, 0, 0);stroke-width:0px;">in1</text></g><g transform="translate(32, 25.5)"><rect x="0" y="0" width="5" height="5" style="fill:rgb(102, 102, 204);stroke:rgb(68, 68, 136);"/></g></g><g transform="translate(109, 55)"><rect x="0" y="0" width="32" height="56" style="fill:rgb(221, 221, 255);stroke:rgb(68, 68, 136);"/><text transform="translate(2.5, -21)" style="dominant-baseline:hanging;font-family:sans-serif;font-size:13.3333px;perspective-origin:12.7031px 0px;stroke:rgb(0, 0, 0);stroke-width:0px;">mux</text><g transform="translate(-5, 40.75)"><rect x="0" y="0" width="5" height="5" style="fill:rgb(102, 102, 204);stroke:rgb(68, 68, 136);"/><text transform="translate(6, -5.5)" style="dominant-baseline:hanging;font-family:sans-serif;font-size:13.3333px;perspective-origin:8.51562px 0px;stroke:rgb(0, 0, 0);stroke-width:0px;">sel</text></g><g transform="translate(-5, 25.5)"><rect x="0" y="0" width="5" height="5" style="fill:rgb(102, 102, 204);stroke:rgb(68, 68, 136);"/><text transform="translate(6, -5.5)" style="dominant-baseline:hanging;font-family:sans-serif;font-size:13.3333px;perspective-origin:8.89062px 0px;stroke:rgb(0, 0, 0);stroke-width:0px;">in2</text></g><g transform="translate(-5, 10.25)"><rect x="0" y="0" width="5" height="5" style="fill:rgb(102, 102, 204);stroke:rgb(68, 68, 136);"/><text transform="translate(6, -5.5)" style="dominant-baseline:hanging;font-family:sans-serif;font-size:13.3333px;perspective-origin:8.89062px 0px;stroke:rgb(0, 0, 0);stroke-width:0px;">in1</text></g><g transform="translate(32, 25.5)"><rect x="0" y="0" width="5" height="5" style="fill:rgb(102, 102, 204);stroke:rgb(68, 68, 136);"/></g></g><g transform="translate(171, 243.75)"><rect x="0" y="0" width="32" height="56" style="fill:rgb(221, 221, 255);stroke:rgb(68, 68, 136);"/><text transform="translate(2.5, -21)" style="dominant-baseline:hanging;font-family:sans-serif;font-size:13.3333px;perspective-origin:12.7031px 0px;stroke:rgb(0, 0, 0);stroke-width:0px;">mux</text><g transform="translate(-5, 40.75)"><rect x="0" y="0" width="5" height="5" style="fill:rgb(102, 102, 204);stroke:rgb(68, 68, 136);"/><text transform="translate(6, -5.5)" style="dominant-baseline:hanging;font-family:sans-serif;font-size:13.3333px;perspective-origin:8.51562px 0px;stroke:rgb(0, 0, 0);stroke-width:0px;">sel</text></g><g transform="translate(-5, 25.5)"><rect x="0" y="0" width="5" height="5" style="fill:rgb(102, 102, 204);stroke:rgb(68, 68, 136);"/><text transform="translate(6, -5.5)" style="dominant-baseline:hanging;font-family:sans-serif;font-size:13.3333px;perspective-origin:8.89062px 0px;stroke:rgb(0, 0, 0);stroke-width:0px;">in2</text></g><g transform="translate(-5, 10.25)"><rect x="0" y="0" width="5" height="5" style="fill:rgb(102, 102, 204);stroke:rgb(68, 68, 136);"/><text transform="translate(6, -5.5)" style="dominant-baseline:hanging;font-family:sans-serif;font-size:13.3333px;perspective-origin:8.89062px 0px;stroke:rgb(0, 0, 0);stroke-width:0px;">in1</text></g><g transform="translate(32, 25.5)"><rect x="0" y="0" width="5" height="5" style="fill:rgb(102, 102, 204);stroke:rgb(68, 68, 136);"/></g></g><g transform="translate(233, 243.75)"><rect x="0" y="0" width="32" height="56" style="fill:rgb(221, 221, 255);stroke:rgb(68, 68, 136);"/><text transform="translate(2.5, -21)" style="dominant-baseline:hanging;font-family:sans-serif;font-size:13.3333px;perspective-origin:12.7031px 0px;stroke:rgb(0, 0, 0);stroke-width:0px;">mux</text><g transform="translate(-5, 40.75)"><rect x="0" y="0" width="5" height="5" style="fill:rgb(102, 102, 204);stroke:rgb(68, 68, 136);"/><text transform="translate(6, -5.5)" style="dominant-baseline:hanging;font-family:sans-serif;font-size:13.3333px;perspective-origin:8.51562px 0px;stroke:rgb(0, 0, 0);stroke-width:0px;">sel</text></g><g transform="translate(-5, 25.5)"><rect x="0" y="0" width="5" height="5" style="fill:rgb(102, 102, 204);stroke:rgb(68, 68, 136);"/><text transform="translate(6, -5.5)" style="dominant-baseline:hanging;font-family:sans-serif;font-size:13.3333px;perspective-origin:8.89062px 0px;stroke:rgb(0, 0, 0);stroke-width:0px;">in2</text></g><g transform="translate(-5, 10.25)"><rect x="0" y="0" width="5" height="5" style="fill:rgb(102, 102, 204);stroke:rgb(68, 68, 136);"/><text transform="translate(6, -5.5)" style="dominant-baseline:hanging;font-family:sans-serif;font-size:13.3333px;perspective-origin:8.89062px 0px;stroke:rgb(0, 0, 0);stroke-width:0px;">in1</text></g><g transform="translate(32, 25.5)"><rect x="0" y="0" width="5" height="5" style="fill:rgb(102, 102, 204);stroke:rgb(68, 68, 136);"/></g></g><g transform="translate(184, 176.75)"><rect x="0" y="0" width="19" height="26" style="fill:rgb(221, 221, 255);stroke:rgb(68, 68, 136);"/><text transform="translate(5, 5)" style="dominant-baseline:hanging;font-family:sans-serif;font-size:13.3333px;perspective-origin:3.70312px 0px;stroke:rgb(0, 0, 0);stroke-width:0px;">0</text></g><g><path d="M 332.5,271.75 L 345,271.75 L 345,393.3333333333333 L 496,393.3333333333333" style="fill:none;stroke:rgb(34, 34, 68);"/><path d="M 0,0 L 8,-3 L 8,3 Z" transform="rotate(180 496 393.3333333333333) translate(496 393.3333333333333)" style="fill:rgb(51, 51, 102);stroke:rgb(34, 34, 68);"/></g><g><path d="M 270,271.75 L 292.5,271.75" style="fill:none;stroke:rgb(34, 34, 68);"/><path d="M 0,0 L 8,-3 L 8,3 Z" transform="rotate(180 292.5 271.75) translate(292.5 271.75)" style="fill:rgb(51, 51, 102);stroke:rgb(34, 34, 68);"/></g><g><path d="M 459,140.33333333333334 L 469,140.33333333333334 L 469,12 L 94,12 L 94,83 L 104,83" style="fill:none;stroke:rgb(34, 34, 68);"/><path d="M 0,0 L 8,-3 L 8,3 Z" transform="rotate(180 104 83) translate(104 83)" style="fill:rgb(51, 51, 102);stroke:rgb(34, 34, 68);"/></g><g><path d="M 146,316.5 L 156,316.5 L 156,287 L 166,287" style="fill:none;stroke:rgb(34, 34, 68);"/><path d="M 0,0 L 8,-3 L 8,3 Z" transform="rotate(180 166 287) translate(166 287)" style="fill:rgb(51, 51, 102);stroke:rgb(34, 34, 68);"/></g><g><path d="M -5,23 L 407,23 L 407,125.08333333333334 L 417,125.08333333333334" style="fill:none;stroke:rgb(34, 34, 68);"/><path d="M 0,0 L 8,-3 L 8,3 Z" transform="rotate(180 417 125.08333333333334) translate(417 125.08333333333334)" style="fill:rgb(51, 51, 102);stroke:rgb(34, 34, 68);"/></g><g><path d="M -5,137.91666666666666 L 22,137.91666666666666 L 22,365.5 L 355,365.5" style="fill:none;stroke:rgb(34, 34, 68);"/><path d="M 0,0 L 8,-3 L 8,3 Z" transform="rotate(180 355 365.5) translate(355 365.5)" style="fill:rgb(51, 51, 102);stroke:rgb(34, 34, 68);"/></g><g><path d="M 146,83 L 156,83 L 156,271.75 L 166,271.75" style="fill:none;stroke:rgb(34, 34, 68);"/><path d="M 0,0 L 8,-3 L 8,3 Z" transform="rotate(180 166 271.75) translate(166 271.75)" style="fill:rgb(51, 51, 102);stroke:rgb(34, 34, 68);"/></g><g><path d="M 84,127.75 L 94,127.75 L 94,98.25 L 104,98.25" style="fill:none;stroke:rgb(34, 34, 68);"/><path d="M 0,0 L 8,-3 L 8,3 Z" transform="rotate(180 104 98.25) translate(104 98.25)" style="fill:rgb(51, 51, 102);stroke:rgb(34, 34, 68);"/></g><g><path d="M -5,67.75 L 104,67.75" style="fill:none;stroke:rgb(34, 34, 68);"/><path d="M 0,0 L 8,-3 L 8,3 Z" transform="rotate(180 104 67.75) translate(104 67.75)" style="fill:rgb(51, 51, 102);stroke:rgb(34, 34, 68);"/></g><g><path d="M -5,137.91666666666666 L 22,137.91666666666666 L 22,165.75 L 291.5,165.75" style="fill:none;stroke:rgb(34, 34, 68);"/><path d="M 0,0 L 8,-3 L 8,3 Z" transform="rotate(180 291.5 165.75) translate(291.5 165.75)" style="fill:rgb(51, 51, 102);stroke:rgb(34, 34, 68);"/><g transform="translate(22, 165.75)"><circle r="2" style="fill:rgb(34, 34, 68);"/></g></g><g><path d="M 208,271.75 L 228,271.75" style="fill:none;stroke:rgb(34, 34, 68);"/><path d="M 0,0 L 8,-3 L 8,3 Z" transform="rotate(180 228 271.75) translate(228 271.75)" style="fill:rgb(51, 51, 102);stroke:rgb(34, 34, 68);"/></g><g><path d="M -5,137.91666666666666 L 22,137.91666666666666 L 22,326.6666666666667 L 104,326.6666666666667" style="fill:none;stroke:rgb(34, 34, 68);"/><path d="M 0,0 L 8,-3 L 8,3 Z" transform="rotate(180 104 326.6666666666667) translate(104 326.6666666666667)" style="fill:rgb(51, 51, 102);stroke:rgb(34, 34, 68);"/><g transform="translate(22, 137.91666666666666)"><circle r="2" style="fill:rgb(34, 34, 68);"/></g><g transform="translate(22, 326.6666666666667)"><circle r="2" style="fill:rgb(34, 34, 68);"/></g></g><g><path d="M 332.5,271.75 L 345,271.75 L 345,140.33333333333334 L 355,140.33333333333334" style="fill:none;stroke:rgb(34, 34, 68);"/><path d="M 0,0 L 8,-3 L 8,3 Z" transform="rotate(180 355 140.33333333333334) translate(355 140.33333333333334)" style="fill:rgb(51, 51, 102);stroke:rgb(34, 34, 68);"/><g transform="translate(345, 271.75)"><circle r="2" style="fill:rgb(34, 34, 68);"/></g></g><g><path d="M 397,355.3333333333333 L 407,355.3333333333333 L 407,155.58333333333334 L 417,155.58333333333334" style="fill:none;stroke:rgb(34, 34, 68);"/><path d="M 0,0 L 8,-3 L 8,3 Z" transform="rotate(180 417 155.58333333333334) translate(417 155.58333333333334)" style="fill:rgb(51, 51, 102);stroke:rgb(34, 34, 68);"/></g><g><path d="M 397,140.33333333333334 L 417,140.33333333333334" style="fill:none;stroke:rgb(34, 34, 68);"/><path d="M 0,0 L 8,-3 L 8,3 Z" transform="rotate(180 417 140.33333333333334) translate(417 140.33333333333334)" style="fill:rgb(51, 51, 102);stroke:rgb(34, 34, 68);"/></g><g><path d="M -5,99.75 L 32,99.75 L 32,256.5 L 166,256.5" style="fill:none;stroke:rgb(34, 34, 68);"/><path d="M 0,0 L 8,-3 L 8,3 Z" transform="rotate(180 166 256.5) translate(166 256.5)" style="fill:rgb(51, 51, 102);stroke:rgb(34, 34, 68);"/></g><g><path d="M 327.5,73.58333333333334 L 345,73.58333333333334 L 345,125.08333333333334 L 355,125.08333333333334" style="fill:none;stroke:rgb(34, 34, 68);"/><path d="M 0,0 L 8,-3 L 8,3 Z" transform="rotate(180 355 125.08333333333334) translate(355 125.08333333333334)" style="fill:rgb(51, 51, 102);stroke:rgb(34, 34, 68);"/></g><g><path d="M 333.5,155.58333333333334 L 355,155.58333333333334" style="fill:none;stroke:rgb(34, 34, 68);"/><path d="M 0,0 L 8,-3 L 8,3 Z" transform="rotate(180 355 155.58333333333334) translate(355 155.58333333333334)" style="fill:rgb(51, 51, 102);stroke:rgb(34, 34, 68);"/></g><g><path d="M -5,137.91666666666666 L 42,137.91666666666666" style="fill:none;stroke:rgb(34, 34, 68);"/><path d="M 0,0 L 8,-3 L 8,3 Z" transform="rotate(180 42 137.91666666666666) translate(42 137.91666666666666)" style="fill:rgb(51, 51, 102);stroke:rgb(34, 34, 68);"/></g><g><path d="M 203,189.75 L 218,189.75 L 218,256.5 L 228,256.5" style="fill:none;stroke:rgb(34, 34, 68);"/><path d="M 0,0 L 8,-3 L 8,3 Z" transform="rotate(180 228 256.5) translate(228 256.5)" style="fill:rgb(51, 51, 102);stroke:rgb(34, 34, 68);"/></g><g><path d="M -5,354.5 L 218,354.5 L 218,287 L 228,287" style="fill:none;stroke:rgb(34, 34, 68);"/><path d="M 0,0 L 8,-3 L 8,3 Z" transform="rotate(180 228 287) translate(228 287)" style="fill:rgb(51, 51, 102);stroke:rgb(34, 34, 68);"/></g></g></g></svg>