<svg xmlns="http://www.w3.org/2000/svg" tabindex="0" version="1.1" viewBox="-12 10.99144172668457 928.98291015625 573.6136474609375"><g transform="scale(0.9554140127388535) translate(-12,14.579999999999984)"><g transform="translate(108, 33)"><rect x="0" y="0" width="750" height="535" style="fill:rgb(221, 221, 255);stroke:rgb(68, 68, 136);"/><text transform="translate(343.5, -21)" style="dominant-baseline:hanging;font-family:sans-serif;font-size:13.3333px;perspective-origin:33.2812px 0px;stroke:rgb(0, 0, 0);stroke-width:0px;">Mem1R1W</text><g transform="translate(-5, 184)"><rect x="0" y="0" width="5" height="5" style="fill:rgb(102, 102, 204);stroke:rgb(68, 68, 136);"/><text transform="translate(-46, 6)" style="dominant-baseline:hanging;font-family:sans-serif;font-size:13.3333px;perspective-origin:15.5px 0px;stroke:rgb(0, 0, 0);stroke-width:0px;">clock</text></g><g transform="translate(-5, 108)"><rect x="0" y="0" width="5" height="5" style="fill:rgb(102, 102, 204);stroke:rgb(68, 68, 136);"/><text transform="translate(-91, 6)" style="dominant-baseline:hanging;font-family:sans-serif;font-size:13.3333px;perspective-origin:41.0625px 0px;stroke:rgb(0, 0, 0);stroke-width:0px;">io_WR_FLAG</text></g><g transform="translate(-5, 383)"><rect x="0" y="0" width="5" height="5" style="fill:rgb(102, 102, 204);stroke:rgb(68, 68, 136);"/><text transform="translate(-91, 6)" style="dominant-baseline:hanging;font-family:sans-serif;font-size:13.3333px;perspective-origin:39.5781px 0px;stroke:rgb(0, 0, 0);stroke-width:0px;">io_RD_FLAG</text></g><g transform="translate(750, 331.75)"><rect x="0" y="0" width="5" height="5" style="fill:rgb(102, 102, 204);stroke:rgb(68, 68, 136);"/><text transform="translate(6, 6)" style="dominant-baseline:hanging;font-family:sans-serif;font-size:13.3333px;perspective-origin:39.2344px 0px;stroke:rgb(0, 0, 0);stroke-width:0px;">io_RD_DATA</text></g><g transform="translate(357, 33)"><rect x="0" y="0" width="252" height="479" style="fill:rgb(221, 221, 255);stroke:rgb(68, 68, 136);"/><text transform="translate(112.5, -21)" style="dominant-baseline:hanging;font-family:sans-serif;font-size:13.3333px;perspective-origin:14.7969px 0px;stroke:rgb(0, 0, 0);stroke-width:0px;">mem</text><g transform="translate(69.75, 371)"><rect x="0" y="0" width="81" height="89" style="fill:rgb(221, 221, 255);stroke:rgb(68, 68, 136);"/><text transform="translate(0, -21)" style="dominant-baseline:hanging;font-family:sans-serif;font-size:13.3333px;perspective-origin:32.1875px 0px;stroke:rgb(0, 0, 0);stroke-width:0px;">rdDataReg</text><text transform="translate(22.5, 36.5)" style="dominant-baseline:hanging;font-family:sans-serif;font-size:13.3333px;perspective-origin:13.3281px 0px;stroke:rgb(0, 0, 0);stroke-width:0px;">read</text><g transform="translate(-5, 74)"><rect x="0" y="0" width="5" height="5" style="fill:rgb(102, 102, 204);stroke:rgb(68, 68, 136);"/><text transform="translate(-19, 6)" style="dominant-baseline:hanging;font-family:sans-serif;font-size:13.3333px;perspective-origin:7.40625px 0px;stroke:rgb(0, 0, 0);stroke-width:0px;">en</text></g><g transform="translate(-5, 10)"><rect x="0" y="0" width="5" height="5" style="fill:rgb(102, 102, 204);stroke:rgb(68, 68, 136);"/><text transform="translate(-37, 6)" style="dominant-baseline:hanging;font-family:sans-serif;font-size:13.3333px;perspective-origin:13.7188px 0px;stroke:rgb(0, 0, 0);stroke-width:0px;">addr</text></g><g transform="translate(81, 42)"><rect x="0" y="0" width="5" height="5" style="fill:rgb(102, 102, 204);stroke:rgb(68, 68, 136);"/><text transform="translate(6, 6)" style="dominant-baseline:hanging;font-family:sans-serif;font-size:13.3333px;perspective-origin:13.4375px 0px;stroke:rgb(0, 0, 0);stroke-width:0px;">data</text></g><g transform="translate(-5, 42)"><rect x="0" y="0" width="5" height="5" style="fill:rgb(102, 102, 204);stroke:rgb(68, 68, 136);"/><text transform="translate(-28, 6)" style="dominant-baseline:hanging;font-family:sans-serif;font-size:13.3333px;perspective-origin:8.46875px 0px;stroke:rgb(0, 0, 0);stroke-width:0px;">clk</text></g></g><g transform="translate(54, 234)"><rect x="0" y="0" width="144" height="89" style="fill:rgb(221, 221, 255);stroke:rgb(68, 68, 136);"/><text transform="translate(0, -21)" style="dominant-baseline:hanging;font-family:sans-serif;font-size:13.3333px;perspective-origin:66.7031px 0px;stroke:rgb(0, 0, 0);stroke-width:0px;">io_RD_DATA_MPORT</text><text transform="translate(54, 36.5)" style="dominant-baseline:hanging;font-family:sans-serif;font-size:13.3333px;perspective-origin:13.3281px 0px;stroke:rgb(0, 0, 0);stroke-width:0px;">read</text><g transform="translate(-5, 74)"><rect x="0" y="0" width="5" height="5" style="fill:rgb(102, 102, 204);stroke:rgb(68, 68, 136);"/><text transform="translate(-19, 6)" style="dominant-baseline:hanging;font-family:sans-serif;font-size:13.3333px;perspective-origin:7.40625px 0px;stroke:rgb(0, 0, 0);stroke-width:0px;">en</text></g><g transform="translate(-5, 42)"><rect x="0" y="0" width="5" height="5" style="fill:rgb(102, 102, 204);stroke:rgb(68, 68, 136);"/><text transform="translate(-37, 6)" style="dominant-baseline:hanging;font-family:sans-serif;font-size:13.3333px;perspective-origin:13.7188px 0px;stroke:rgb(0, 0, 0);stroke-width:0px;">addr</text></g><g transform="translate(144, 42)"><rect x="0" y="0" width="5" height="5" style="fill:rgb(102, 102, 204);stroke:rgb(68, 68, 136);"/><text transform="translate(6, 6)" style="dominant-baseline:hanging;font-family:sans-serif;font-size:13.3333px;perspective-origin:13.4375px 0px;stroke:rgb(0, 0, 0);stroke-width:0px;">data</text></g><g transform="translate(-5, 10)"><rect x="0" y="0" width="5" height="5" style="fill:rgb(102, 102, 204);stroke:rgb(68, 68, 136);"/><text transform="translate(-28, 6)" style="dominant-baseline:hanging;font-family:sans-serif;font-size:13.3333px;perspective-origin:8.46875px 0px;stroke:rgb(0, 0, 0);stroke-width:0px;">clk</text></g></g><g transform="translate(54, 33)"><rect x="0" y="0" width="55" height="153" style="fill:rgb(221, 221, 255);stroke:rgb(68, 68, 136);"/><text transform="translate(5, -21)" style="dominant-baseline:hanging;font-family:sans-serif;font-size:13.3333px;perspective-origin:24.0312px 0px;stroke:rgb(0, 0, 0);stroke-width:0px;">MPORT</text><text transform="translate(5, 68.5)" style="dominant-baseline:hanging;font-family:sans-serif;font-size:13.3333px;perspective-origin:13.5312px 0px;stroke:rgb(0, 0, 0);stroke-width:0px;">write</text><g transform="translate(-5, 42)"><rect x="0" y="0" width="5" height="5" style="fill:rgb(102, 102, 204);stroke:rgb(68, 68, 136);"/><text transform="translate(-19, 6)" style="dominant-baseline:hanging;font-family:sans-serif;font-size:13.3333px;perspective-origin:7.40625px 0px;stroke:rgb(0, 0, 0);stroke-width:0px;">en</text></g><g transform="translate(-5, 106)"><rect x="0" y="0" width="5" height="5" style="fill:rgb(102, 102, 204);stroke:rgb(68, 68, 136);"/><text transform="translate(-37, 6)" style="dominant-baseline:hanging;font-family:sans-serif;font-size:13.3333px;perspective-origin:13.7188px 0px;stroke:rgb(0, 0, 0);stroke-width:0px;">addr</text></g><g transform="translate(-5, 10)"><rect x="0" y="0" width="5" height="5" style="fill:rgb(102, 102, 204);stroke:rgb(68, 68, 136);"/><text transform="translate(-37, 6)" style="dominant-baseline:hanging;font-family:sans-serif;font-size:13.3333px;perspective-origin:13.4375px 0px;stroke:rgb(0, 0, 0);stroke-width:0px;">data</text></g><g transform="translate(-5, 138)"><rect x="0" y="0" width="5" height="5" style="fill:rgb(102, 102, 204);stroke:rgb(68, 68, 136);"/><text transform="translate(-37, 6)" style="dominant-baseline:hanging;font-family:sans-serif;font-size:13.3333px;perspective-origin:16.2344px 0px;stroke:rgb(0, 0, 0);stroke-width:0px;">mask</text></g><g transform="translate(-5, 74)"><rect x="0" y="0" width="5" height="5" style="fill:rgb(102, 102, 204);stroke:rgb(68, 68, 136);"/><text transform="translate(-28, 6)" style="dominant-baseline:hanging;font-family:sans-serif;font-size:13.3333px;perspective-origin:8.46875px 0px;stroke:rgb(0, 0, 0);stroke-width:0px;">clk</text></g></g></g><g transform="translate(162, 365.5)"><rect x="0" y="0" width="30" height="40" style="fill:rgb(221, 221, 255);stroke:rgb(68, 68, 136);"/><text transform="translate(-120, -21)" style="dominant-baseline:hanging;font-family:sans-serif;font-size:13.3333px;perspective-origin:119.859px 0px;stroke:rgb(0, 0, 0);stroke-width:0px;">mem_io_RD_DATA_MPORT_en_pipe_0</text><text transform="translate(5, 12)" style="dominant-baseline:hanging;font-family:sans-serif;font-size:13.3333px;perspective-origin:9.625px 0px;stroke:rgb(0, 0, 0);stroke-width:0px;">reg</text><g transform="translate(-5, 17.5)"><rect x="0" y="0" width="5" height="5" style="fill:rgb(102, 102, 204);stroke:rgb(68, 68, 136);"/></g><g transform="translate(30, 17.5)"><rect x="0" y="0" width="5" height="5" style="fill:rgb(102, 102, 204);stroke:rgb(68, 68, 136);"/></g></g><g transform="translate(649, 298.75)"><rect x="0" y="0" width="32" height="56" style="fill:rgb(221, 221, 255);stroke:rgb(68, 68, 136);"/><text transform="translate(2.5, -21)" style="dominant-baseline:hanging;font-family:sans-serif;font-size:13.3333px;perspective-origin:12.9062px 0px;stroke:rgb(0, 0, 0);stroke-width:0px;">mux</text><g transform="translate(-5, 40.75)"><rect x="0" y="0" width="5" height="5" style="fill:rgb(102, 102, 204);stroke:rgb(68, 68, 136);"/><text transform="translate(6, -5.5)" style="dominant-baseline:hanging;font-family:sans-serif;font-size:13.3333px;perspective-origin:8.51562px 0px;stroke:rgb(0, 0, 0);stroke-width:0px;">sel</text></g><g transform="translate(-5, 25.5)"><rect x="0" y="0" width="5" height="5" style="fill:rgb(102, 102, 204);stroke:rgb(68, 68, 136);"/><text transform="translate(6, -5.5)" style="dominant-baseline:hanging;font-family:sans-serif;font-size:13.3333px;perspective-origin:8.875px 0px;stroke:rgb(0, 0, 0);stroke-width:0px;">in2</text></g><g transform="translate(-5, 10.25)"><rect x="0" y="0" width="5" height="5" style="fill:rgb(102, 102, 204);stroke:rgb(68, 68, 136);"/><text transform="translate(6, -5.5)" style="dominant-baseline:hanging;font-family:sans-serif;font-size:13.3333px;perspective-origin:8.875px 0px;stroke:rgb(0, 0, 0);stroke-width:0px;">in1</text></g><g transform="translate(32, 25.5)"><rect x="0" y="0" width="5" height="5" style="fill:rgb(102, 102, 204);stroke:rgb(68, 68, 136);"/></g></g><g transform="translate(711, 314.25)"><rect x="0" y="0" width="20" height="40" style="fill:rgb(221, 221, 255);stroke:rgb(68, 68, 136);"/><text transform="translate(0, -21)" style="dominant-baseline:hanging;font-family:sans-serif;font-size:13.3333px;perspective-origin:11.1094px 0px;stroke:rgb(0, 0, 0);stroke-width:0px;">pad</text><g transform="translate(-5, 10)"><rect x="0" y="0" width="5" height="5" style="fill:rgb(102, 102, 204);stroke:rgb(68, 68, 136);"/></g><g transform="translate(-5, 25)"><rect x="0" y="0" width="5" height="5" style="fill:rgb(102, 102, 204);stroke:rgb(68, 68, 136);"/><text transform="translate(6, -5.5)" style="dominant-baseline:hanging;font-family:sans-serif;font-size:13.3333px;perspective-origin:7.40625px 0px;stroke:rgb(0, 0, 0);stroke-width:0px;">32</text></g><g transform="translate(20, 17.5)"><rect x="0" y="0" width="5" height="5" style="fill:rgb(102, 102, 204);stroke:rgb(68, 68, 136);"/></g></g><g transform="translate(173, 472.5)"><rect x="0" y="0" width="19" height="26" style="fill:rgb(221, 221, 255);stroke:rgb(68, 68, 136);"/><text transform="translate(5, 5)" style="dominant-baseline:hanging;font-family:sans-serif;font-size:13.3333px;perspective-origin:3.70312px 0px;stroke:rgb(0, 0, 0);stroke-width:0px;">1</text></g><g transform="translate(173, 425.5)"><rect x="0" y="0" width="19" height="26" style="fill:rgb(221, 221, 255);stroke:rgb(68, 68, 136);"/><text transform="translate(5, 5)" style="dominant-baseline:hanging;font-family:sans-serif;font-size:13.3333px;perspective-origin:3.70312px 0px;stroke:rgb(0, 0, 0);stroke-width:0px;">0</text></g><g transform="translate(173, 298.5)"><rect x="0" y="0" width="19" height="26" style="fill:rgb(221, 221, 255);stroke:rgb(68, 68, 136);"/><text transform="translate(5, 5)" style="dominant-baseline:hanging;font-family:sans-serif;font-size:13.3333px;perspective-origin:3.70312px 0px;stroke:rgb(0, 0, 0);stroke-width:0px;">0</text></g><g transform="translate(173, 197.5)"><rect x="0" y="0" width="19" height="26" style="fill:rgb(221, 221, 255);stroke:rgb(68, 68, 136);"/><text transform="translate(5, 5)" style="dominant-baseline:hanging;font-family:sans-serif;font-size:13.3333px;perspective-origin:3.70312px 0px;stroke:rgb(0, 0, 0);stroke-width:0px;">0</text></g><g transform="translate(173, 243.5)"><rect x="0" y="0" width="19" height="26" style="fill:rgb(221, 221, 255);stroke:rgb(68, 68, 136);"/><text transform="translate(5, 5)" style="dominant-baseline:hanging;font-family:sans-serif;font-size:13.3333px;perspective-origin:3.70312px 0px;stroke:rgb(0, 0, 0);stroke-width:0px;">1</text></g><g transform="translate(173, 65.5)"><rect x="0" y="0" width="19" height="26" style="fill:rgb(221, 221, 255);stroke:rgb(68, 68, 136);"/><text transform="translate(5, 5)" style="dominant-baseline:hanging;font-family:sans-serif;font-size:13.3333px;perspective-origin:3.70312px 0px;stroke:rgb(0, 0, 0);stroke-width:0px;">0</text></g><g><path d="M -5,385.5 L 157,385.5" style="fill:none;stroke:rgb(34, 34, 68);"/><path d="M 0,0 L 8,-3 L 8,3 Z" transform="rotate(180 157 385.5) translate(157 385.5)" style="fill:rgb(51, 51, 102);stroke:rgb(34, 34, 68);"/></g><g><path d="M 560,311.5 L 644,311.5" style="fill:none;stroke:rgb(34, 34, 68);"/><path d="M 0,0 L 8,-3 L 8,3 Z" transform="rotate(180 644 311.5) translate(644 311.5)" style="fill:rgb(51, 51, 102);stroke:rgb(34, 34, 68);"/></g><g><path d="M 192,256.5 L 342,256.5 L 342,206.5 L 406,206.5" style="fill:none;stroke:rgb(34, 34, 68);"/><path d="M 0,0 L 8,-3 L 8,3 Z" transform="rotate(180 406 206.5) translate(406 206.5)" style="fill:rgb(51, 51, 102);stroke:rgb(34, 34, 68);"/></g><g><path d="M -5,186.5 L 32,186.5 L 32,461.5 L 322,461.5 L 322,448.5 L 421.75,448.5" style="fill:none;stroke:rgb(34, 34, 68);"/><path d="M 0,0 L 8,-3 L 8,3 Z" transform="rotate(180 421.75 448.5) translate(421.75 448.5)" style="fill:rgb(51, 51, 102);stroke:rgb(34, 34, 68);"/><g transform="translate(32, 186.5)"><circle r="2" style="fill:rgb(34, 34, 68);"/></g></g><g><path d="M 197,385.5 L 322,385.5 L 322,343.5 L 406,343.5" style="fill:none;stroke:rgb(34, 34, 68);"/><path d="M 0,0 L 8,-3 L 8,3 Z" transform="rotate(180 406 343.5) translate(406 343.5)" style="fill:rgb(51, 51, 102);stroke:rgb(34, 34, 68);"/></g><g><path d="M -5,186.5 L 32,186.5 L 32,279.5 L 406,279.5" style="fill:none;stroke:rgb(34, 34, 68);"/><path d="M 0,0 L 8,-3 L 8,3 Z" transform="rotate(180 406 279.5) translate(406 279.5)" style="fill:rgb(51, 51, 102);stroke:rgb(34, 34, 68);"/><g transform="translate(32, 279.5)"><circle r="2" style="fill:rgb(34, 34, 68);"/></g></g><g><path d="M 192,210.5 L 332,210.5 L 332,174.5 L 406,174.5" style="fill:none;stroke:rgb(34, 34, 68);"/><path d="M 0,0 L 8,-3 L 8,3 Z" transform="rotate(180 406 174.5) translate(406 174.5)" style="fill:rgb(51, 51, 102);stroke:rgb(34, 34, 68);"/></g><g><path d="M -5,110.5 L 406,110.5" style="fill:none;stroke:rgb(34, 34, 68);"/><path d="M 0,0 L 8,-3 L 8,3 Z" transform="rotate(180 406 110.5) translate(406 110.5)" style="fill:rgb(51, 51, 102);stroke:rgb(34, 34, 68);"/></g><g><path d="M -5,385.5 L 22,385.5 L 22,522 L 634,522 L 634,342 L 644,342" style="fill:none;stroke:rgb(34, 34, 68);"/><path d="M 0,0 L 8,-3 L 8,3 Z" transform="rotate(180 644 342) translate(644 342)" style="fill:rgb(51, 51, 102);stroke:rgb(34, 34, 68);"/><g transform="translate(22, 385.5)"><circle r="2" style="fill:rgb(34, 34, 68);"/></g></g><g><path d="M 736,334.25 L 755,334.25" style="fill:none;stroke:rgb(34, 34, 68);"/><path d="M 0,0 L 8,-3 L 8,3 Z" transform="rotate(180 755 334.25) translate(755 334.25)" style="fill:rgb(51, 51, 102);stroke:rgb(34, 34, 68);"/></g><g><path d="M 686,326.75 L 706,326.75" style="fill:none;stroke:rgb(34, 34, 68);"/><path d="M 0,0 L 8,-3 L 8,3 Z" transform="rotate(180 706 326.75) translate(706 326.75)" style="fill:rgb(51, 51, 102);stroke:rgb(34, 34, 68);"/></g><g><path d="M -5,186.5 L 322,186.5 L 322,142.5 L 406,142.5" style="fill:none;stroke:rgb(34, 34, 68);"/><path d="M 0,0 L 8,-3 L 8,3 Z" transform="rotate(180 406 142.5) translate(406 142.5)" style="fill:rgb(51, 51, 102);stroke:rgb(34, 34, 68);"/></g><g><path d="M 192,78.5 L 406,78.5" style="fill:none;stroke:rgb(34, 34, 68);"/><path d="M 0,0 L 8,-3 L 8,3 Z" transform="rotate(180 406 78.5) translate(406 78.5)" style="fill:rgb(51, 51, 102);stroke:rgb(34, 34, 68);"/></g><g><path d="M 192,438.5 L 322,438.5 L 322,416.5 L 421.75,416.5" style="fill:none;stroke:rgb(34, 34, 68);"/><path d="M 0,0 L 8,-3 L 8,3 Z" transform="rotate(180 421.75 416.5) translate(421.75 416.5)" style="fill:rgb(51, 51, 102);stroke:rgb(34, 34, 68);"/></g><g><path d="M 512.75,448.5 L 624,448.5 L 624,326.75 L 644,326.75" style="fill:none;stroke:rgb(34, 34, 68);"/><path d="M 0,0 L 8,-3 L 8,3 Z" transform="rotate(180 644 326.75) translate(644 326.75)" style="fill:rgb(51, 51, 102);stroke:rgb(34, 34, 68);"/></g><g><path d="M 192,485.5 L 322,485.5 L 322,480.5 L 421.75,480.5" style="fill:none;stroke:rgb(34, 34, 68);"/><path d="M 0,0 L 8,-3 L 8,3 Z" transform="rotate(180 421.75 480.5) translate(421.75 480.5)" style="fill:rgb(51, 51, 102);stroke:rgb(34, 34, 68);"/></g><g><path d="M 192,311.5 L 406,311.5" style="fill:none;stroke:rgb(34, 34, 68);"/><path d="M 0,0 L 8,-3 L 8,3 Z" transform="rotate(180 406 311.5) translate(406 311.5)" style="fill:rgb(51, 51, 102);stroke:rgb(34, 34, 68);"/></g></g></g></svg>