<svg xmlns="http://www.w3.org/2000/svg" tabindex="0" version="1.1" viewBox="-12 19.850830078125 912.64404296875 555.496826171875"><g transform="scale(1.171875) translate(-12,17.569999999999993)"><g transform="translate(72, 33)"><rect x="0" y="0" width="612" height="416.5" style="fill:rgb(221, 221, 255);stroke:rgb(68, 68, 136);"/><text transform="translate(288, -21)" style="dominant-baseline:hanging;font-family:sans-serif;font-size:13.3333px;perspective-origin:16.2812px 0px;stroke:rgb(0, 0, 0);stroke-width:0px;">Mux3</text><g transform="translate(-5, 318.50000000000006)"><rect x="0" y="0" width="5" height="5" style="fill:rgb(102, 102, 204);stroke:rgb(68, 68, 136);"/><text transform="translate(-46, 6)" style="dominant-baseline:hanging;font-family:sans-serif;font-size:13.3333px;perspective-origin:15.25px 0px;stroke:rgb(0, 0, 0);stroke-width:0px;">clock</text></g><g transform="translate(-5, 350.50000000000006)"><rect x="0" y="0" width="5" height="5" style="fill:rgb(102, 102, 204);stroke:rgb(68, 68, 136);"/><text transform="translate(-46, 6)" style="dominant-baseline:hanging;font-family:sans-serif;font-size:13.3333px;perspective-origin:15.0938px 0px;stroke:rgb(0, 0, 0);stroke-width:0px;">reset</text></g><g transform="translate(-5, 164.00000000000003)"><rect x="0" y="0" width="5" height="5" style="fill:rgb(102, 102, 204);stroke:rgb(68, 68, 136);"/><text transform="translate(-55, 6)" style="dominant-baseline:hanging;font-family:sans-serif;font-size:13.3333px;perspective-origin:17.9062px 0px;stroke:rgb(0, 0, 0);stroke-width:0px;">io_in0</text></g><g transform="translate(-5, 66)"><rect x="0" y="0" width="5" height="5" style="fill:rgb(102, 102, 204);stroke:rgb(68, 68, 136);"/><text transform="translate(-55, 6)" style="dominant-baseline:hanging;font-family:sans-serif;font-size:13.3333px;perspective-origin:17.7812px 0px;stroke:rgb(0, 0, 0);stroke-width:0px;">io_in1</text></g><g transform="translate(-5, 34)"><rect x="0" y="0" width="5" height="5" style="fill:rgb(102, 102, 204);stroke:rgb(68, 68, 136);"/><text transform="translate(-55, 6)" style="dominant-baseline:hanging;font-family:sans-serif;font-size:13.3333px;perspective-origin:17.7812px 0px;stroke:rgb(0, 0, 0);stroke-width:0px;">io_in2</text></g><g transform="translate(-5, 382.50000000000006)"><rect x="0" y="0" width="5" height="5" style="fill:rgb(102, 102, 204);stroke:rgb(68, 68, 136);"/><text transform="translate(-55, 6)" style="dominant-baseline:hanging;font-family:sans-serif;font-size:13.3333px;perspective-origin:17.4062px 0px;stroke:rgb(0, 0, 0);stroke-width:0px;">io_sel</text></g><g transform="translate(612, 12)"><rect x="0" y="0" width="5" height="5" style="fill:rgb(102, 102, 204);stroke:rgb(68, 68, 136);"/><text transform="translate(6, 6)" style="dominant-baseline:hanging;font-family:sans-serif;font-size:13.3333px;perspective-origin:33.3281px 0px;stroke:rgb(0, 0, 0);stroke-width:0px;">io_outIEEE</text></g><g transform="translate(296, 161.75000000000003)"><rect x="0" y="0" width="30" height="40" style="fill:rgb(221, 221, 255);stroke:rgb(68, 68, 136);"/><text transform="translate(1.5, -21)" style="dominant-baseline:hanging;font-family:sans-serif;font-size:13.3333px;perspective-origin:9.54688px 0px;stroke:rgb(0, 0, 0);stroke-width:0px;">out</text><text transform="translate(5, 12)" style="dominant-baseline:hanging;font-family:sans-serif;font-size:13.3333px;perspective-origin:9.625px 0px;stroke:rgb(0, 0, 0);stroke-width:0px;">reg</text><g transform="translate(-5, 17.5)"><rect x="0" y="0" width="5" height="5" style="fill:rgb(102, 102, 204);stroke:rgb(68, 68, 136);"/></g><g transform="translate(30, 17.5)"><rect x="0" y="0" width="5" height="5" style="fill:rgb(102, 102, 204);stroke:rgb(68, 68, 136);"/></g></g><g transform="translate(109, 287.00000000000006)"><rect x="0" y="0" width="32" height="56" style="fill:rgb(221, 221, 255);stroke:rgb(68, 68, 136);"/><text transform="translate(7, -21)" style="dominant-baseline:hanging;font-family:sans-serif;font-size:13.3333px;perspective-origin:7.40625px 0px;stroke:rgb(0, 0, 0);stroke-width:0px;">eq</text><g transform="translate(-5, 35.666666666666664)"><rect x="0" y="0" width="5" height="5" style="fill:rgb(102, 102, 204);stroke:rgb(68, 68, 136);"/><text transform="translate(6, -5.5)" style="dominant-baseline:hanging;font-family:sans-serif;font-size:13.3333px;perspective-origin:8.89062px 0px;stroke:rgb(0, 0, 0);stroke-width:0px;">in2</text></g><g transform="translate(-5, 15.333333333333332)"><rect x="0" y="0" width="5" height="5" style="fill:rgb(102, 102, 204);stroke:rgb(68, 68, 136);"/><text transform="translate(6, -5.5)" style="dominant-baseline:hanging;font-family:sans-serif;font-size:13.3333px;perspective-origin:3.84375px 0px;stroke:rgb(0, 0, 0);stroke-width:0px;">4</text></g><g transform="translate(32, 25.5)"><rect x="0" y="0" width="5" height="5" style="fill:rgb(102, 102, 204);stroke:rgb(68, 68, 136);"/></g></g><g transform="translate(37, 100.5)"><rect x="0" y="0" width="32" height="56" style="fill:rgb(221, 221, 255);stroke:rgb(68, 68, 136);"/><text transform="translate(7, -21)" style="dominant-baseline:hanging;font-family:sans-serif;font-size:13.3333px;perspective-origin:7.40625px 0px;stroke:rgb(0, 0, 0);stroke-width:0px;">eq</text><g transform="translate(-5, 35.666666666666664)"><rect x="0" y="0" width="5" height="5" style="fill:rgb(102, 102, 204);stroke:rgb(68, 68, 136);"/><text transform="translate(6, -5.5)" style="dominant-baseline:hanging;font-family:sans-serif;font-size:13.3333px;perspective-origin:8.89062px 0px;stroke:rgb(0, 0, 0);stroke-width:0px;">in2</text></g><g transform="translate(-5, 15.333333333333332)"><rect x="0" y="0" width="5" height="5" style="fill:rgb(102, 102, 204);stroke:rgb(68, 68, 136);"/><text transform="translate(6, -5.5)" style="dominant-baseline:hanging;font-family:sans-serif;font-size:13.3333px;perspective-origin:3.70312px 0px;stroke:rgb(0, 0, 0);stroke-width:0px;">2</text></g><g transform="translate(32, 25.5)"><rect x="0" y="0" width="5" height="5" style="fill:rgb(102, 102, 204);stroke:rgb(68, 68, 136);"/></g></g><g transform="translate(481, 346.83333333333337)"><rect x="0" y="0" width="32" height="56" style="fill:rgb(221, 221, 255);stroke:rgb(68, 68, 136);"/><text transform="translate(7, -21)" style="dominant-baseline:hanging;font-family:sans-serif;font-size:13.3333px;perspective-origin:7.40625px 0px;stroke:rgb(0, 0, 0);stroke-width:0px;">eq</text><g transform="translate(-5, 35.666666666666664)"><rect x="0" y="0" width="5" height="5" style="fill:rgb(102, 102, 204);stroke:rgb(68, 68, 136);"/><text transform="translate(6, -5.5)" style="dominant-baseline:hanging;font-family:sans-serif;font-size:13.3333px;perspective-origin:8.89062px 0px;stroke:rgb(0, 0, 0);stroke-width:0px;">in2</text></g><g transform="translate(-5, 15.333333333333332)"><rect x="0" y="0" width="5" height="5" style="fill:rgb(102, 102, 204);stroke:rgb(68, 68, 136);"/><text transform="translate(6, -5.5)" style="dominant-baseline:hanging;font-family:sans-serif;font-size:13.3333px;perspective-origin:3.70312px 0px;stroke:rgb(0, 0, 0);stroke-width:0px;">1</text></g><g transform="translate(32, 25.5)"><rect x="0" y="0" width="5" height="5" style="fill:rgb(102, 102, 204);stroke:rgb(68, 68, 136);"/></g></g><g transform="translate(419, 319.00000000000006)"><rect x="0" y="0" width="32" height="56" style="fill:rgb(221, 221, 255);stroke:rgb(68, 68, 136);"/><text transform="translate(7, -21)" style="dominant-baseline:hanging;font-family:sans-serif;font-size:13.3333px;perspective-origin:7.40625px 0px;stroke:rgb(0, 0, 0);stroke-width:0px;">eq</text><g transform="translate(-5, 35.666666666666664)"><rect x="0" y="0" width="5" height="5" style="fill:rgb(102, 102, 204);stroke:rgb(68, 68, 136);"/><text transform="translate(6, -5.5)" style="dominant-baseline:hanging;font-family:sans-serif;font-size:13.3333px;perspective-origin:8.89062px 0px;stroke:rgb(0, 0, 0);stroke-width:0px;">in2</text></g><g transform="translate(-5, 15.333333333333332)"><rect x="0" y="0" width="5" height="5" style="fill:rgb(102, 102, 204);stroke:rgb(68, 68, 136);"/><text transform="translate(6, -5.5)" style="dominant-baseline:hanging;font-family:sans-serif;font-size:13.3333px;perspective-origin:3.70312px 0px;stroke:rgb(0, 0, 0);stroke-width:0px;">7</text></g><g transform="translate(32, 25.5)"><rect x="0" y="0" width="5" height="5" style="fill:rgb(102, 102, 204);stroke:rgb(68, 68, 136);"/></g></g><g transform="translate(357, 319.00000000000006)"><rect x="0" y="0" width="32" height="56" style="fill:rgb(221, 221, 255);stroke:rgb(68, 68, 136);"/><text transform="translate(7, -21)" style="dominant-baseline:hanging;font-family:sans-serif;font-size:13.3333px;perspective-origin:7.40625px 0px;stroke:rgb(0, 0, 0);stroke-width:0px;">eq</text><g transform="translate(-5, 35.666666666666664)"><rect x="0" y="0" width="5" height="5" style="fill:rgb(102, 102, 204);stroke:rgb(68, 68, 136);"/><text transform="translate(6, -5.5)" style="dominant-baseline:hanging;font-family:sans-serif;font-size:13.3333px;perspective-origin:8.89062px 0px;stroke:rgb(0, 0, 0);stroke-width:0px;">in2</text></g><g transform="translate(-5, 15.333333333333332)"><rect x="0" y="0" width="5" height="5" style="fill:rgb(102, 102, 204);stroke:rgb(68, 68, 136);"/><text transform="translate(6, -5.5)" style="dominant-baseline:hanging;font-family:sans-serif;font-size:13.3333px;perspective-origin:3.84375px 0px;stroke:rgb(0, 0, 0);stroke-width:0px;">5</text></g><g transform="translate(32, 25.5)"><rect x="0" y="0" width="5" height="5" style="fill:rgb(102, 102, 204);stroke:rgb(68, 68, 136);"/></g></g><g transform="translate(295, 319.00000000000006)"><rect x="0" y="0" width="32" height="56" style="fill:rgb(221, 221, 255);stroke:rgb(68, 68, 136);"/><text transform="translate(7, -21)" style="dominant-baseline:hanging;font-family:sans-serif;font-size:13.3333px;perspective-origin:7.40625px 0px;stroke:rgb(0, 0, 0);stroke-width:0px;">eq</text><g transform="translate(-5, 35.666666666666664)"><rect x="0" y="0" width="5" height="5" style="fill:rgb(102, 102, 204);stroke:rgb(68, 68, 136);"/><text transform="translate(6, -5.5)" style="dominant-baseline:hanging;font-family:sans-serif;font-size:13.3333px;perspective-origin:8.89062px 0px;stroke:rgb(0, 0, 0);stroke-width:0px;">in2</text></g><g transform="translate(-5, 15.333333333333332)"><rect x="0" y="0" width="5" height="5" style="fill:rgb(102, 102, 204);stroke:rgb(68, 68, 136);"/><text transform="translate(6, -5.5)" style="dominant-baseline:hanging;font-family:sans-serif;font-size:13.3333px;perspective-origin:3.84375px 0px;stroke:rgb(0, 0, 0);stroke-width:0px;">0</text></g><g transform="translate(32, 25.5)"><rect x="0" y="0" width="5" height="5" style="fill:rgb(102, 102, 204);stroke:rgb(68, 68, 136);"/></g></g><g transform="translate(357, 222.00000000000003)"><rect x="0" y="0" width="32" height="56" style="fill:rgb(221, 221, 255);stroke:rgb(68, 68, 136);"/><text transform="translate(2.5, -21)" style="dominant-baseline:hanging;font-family:sans-serif;font-size:13.3333px;perspective-origin:12.6719px 0px;stroke:rgb(0, 0, 0);stroke-width:0px;">mux</text><g transform="translate(-5, 40.75)"><rect x="0" y="0" width="5" height="5" style="fill:rgb(102, 102, 204);stroke:rgb(68, 68, 136);"/><text transform="translate(6, -5.5)" style="dominant-baseline:hanging;font-family:sans-serif;font-size:13.3333px;perspective-origin:8.51562px 0px;stroke:rgb(0, 0, 0);stroke-width:0px;">sel</text></g><g transform="translate(-5, 25.5)"><rect x="0" y="0" width="5" height="5" style="fill:rgb(102, 102, 204);stroke:rgb(68, 68, 136);"/><text transform="translate(6, -5.5)" style="dominant-baseline:hanging;font-family:sans-serif;font-size:13.3333px;perspective-origin:8.89062px 0px;stroke:rgb(0, 0, 0);stroke-width:0px;">in2</text></g><g transform="translate(-5, 10.25)"><rect x="0" y="0" width="5" height="5" style="fill:rgb(102, 102, 204);stroke:rgb(68, 68, 136);"/><text transform="translate(6, -5.5)" style="dominant-baseline:hanging;font-family:sans-serif;font-size:13.3333px;perspective-origin:8.89062px 0px;stroke:rgb(0, 0, 0);stroke-width:0px;">in1</text></g><g transform="translate(32, 25.5)"><rect x="0" y="0" width="5" height="5" style="fill:rgb(102, 102, 204);stroke:rgb(68, 68, 136);"/></g></g><g transform="translate(308, 221.75000000000003)"><rect x="0" y="0" width="19" height="26" style="fill:rgb(221, 221, 255);stroke:rgb(68, 68, 136);"/><text transform="translate(5, 5)" style="dominant-baseline:hanging;font-family:sans-serif;font-size:13.3333px;perspective-origin:3.84375px 0px;stroke:rgb(0, 0, 0);stroke-width:0px;">0</text></g><g transform="translate(419, 222.00000000000003)"><rect x="0" y="0" width="32" height="56" style="fill:rgb(221, 221, 255);stroke:rgb(68, 68, 136);"/><text transform="translate(2.5, -21)" style="dominant-baseline:hanging;font-family:sans-serif;font-size:13.3333px;perspective-origin:12.6719px 0px;stroke:rgb(0, 0, 0);stroke-width:0px;">mux</text><g transform="translate(-5, 40.75)"><rect x="0" y="0" width="5" height="5" style="fill:rgb(102, 102, 204);stroke:rgb(68, 68, 136);"/><text transform="translate(6, -5.5)" style="dominant-baseline:hanging;font-family:sans-serif;font-size:13.3333px;perspective-origin:8.51562px 0px;stroke:rgb(0, 0, 0);stroke-width:0px;">sel</text></g><g transform="translate(-5, 25.5)"><rect x="0" y="0" width="5" height="5" style="fill:rgb(102, 102, 204);stroke:rgb(68, 68, 136);"/><text transform="translate(6, -5.5)" style="dominant-baseline:hanging;font-family:sans-serif;font-size:13.3333px;perspective-origin:8.89062px 0px;stroke:rgb(0, 0, 0);stroke-width:0px;">in2</text></g><g transform="translate(-5, 10.25)"><rect x="0" y="0" width="5" height="5" style="fill:rgb(102, 102, 204);stroke:rgb(68, 68, 136);"/><text transform="translate(6, -5.5)" style="dominant-baseline:hanging;font-family:sans-serif;font-size:13.3333px;perspective-origin:8.89062px 0px;stroke:rgb(0, 0, 0);stroke-width:0px;">in1</text></g><g transform="translate(32, 25.5)"><rect x="0" y="0" width="5" height="5" style="fill:rgb(102, 102, 204);stroke:rgb(68, 68, 136);"/></g></g><g transform="translate(370, 155.00000000000003)"><rect x="0" y="0" width="19" height="26" style="fill:rgb(221, 221, 255);stroke:rgb(68, 68, 136);"/><text transform="translate(5, 5)" style="dominant-baseline:hanging;font-family:sans-serif;font-size:13.3333px;perspective-origin:3.84375px 0px;stroke:rgb(0, 0, 0);stroke-width:0px;">0</text></g><g transform="translate(481, 222.00000000000003)"><rect x="0" y="0" width="32" height="56" style="fill:rgb(221, 221, 255);stroke:rgb(68, 68, 136);"/><text transform="translate(2.5, -21)" style="dominant-baseline:hanging;font-family:sans-serif;font-size:13.3333px;perspective-origin:12.6719px 0px;stroke:rgb(0, 0, 0);stroke-width:0px;">mux</text><g transform="translate(-5, 40.75)"><rect x="0" y="0" width="5" height="5" style="fill:rgb(102, 102, 204);stroke:rgb(68, 68, 136);"/><text transform="translate(6, -5.5)" style="dominant-baseline:hanging;font-family:sans-serif;font-size:13.3333px;perspective-origin:8.51562px 0px;stroke:rgb(0, 0, 0);stroke-width:0px;">sel</text></g><g transform="translate(-5, 25.5)"><rect x="0" y="0" width="5" height="5" style="fill:rgb(102, 102, 204);stroke:rgb(68, 68, 136);"/><text transform="translate(6, -5.5)" style="dominant-baseline:hanging;font-family:sans-serif;font-size:13.3333px;perspective-origin:8.89062px 0px;stroke:rgb(0, 0, 0);stroke-width:0px;">in2</text></g><g transform="translate(-5, 10.25)"><rect x="0" y="0" width="5" height="5" style="fill:rgb(102, 102, 204);stroke:rgb(68, 68, 136);"/><text transform="translate(6, -5.5)" style="dominant-baseline:hanging;font-family:sans-serif;font-size:13.3333px;perspective-origin:8.89062px 0px;stroke:rgb(0, 0, 0);stroke-width:0px;">in1</text></g><g transform="translate(32, 25.5)"><rect x="0" y="0" width="5" height="5" style="fill:rgb(102, 102, 204);stroke:rgb(68, 68, 136);"/></g></g><g transform="translate(432, 155.00000000000003)"><rect x="0" y="0" width="19" height="26" style="fill:rgb(221, 221, 255);stroke:rgb(68, 68, 136);"/><text transform="translate(5, 5)" style="dominant-baseline:hanging;font-family:sans-serif;font-size:13.3333px;perspective-origin:3.84375px 0px;stroke:rgb(0, 0, 0);stroke-width:0px;">0</text></g><g transform="translate(543, 222.00000000000003)"><rect x="0" y="0" width="32" height="56" style="fill:rgb(221, 221, 255);stroke:rgb(68, 68, 136);"/><text transform="translate(2.5, -21)" style="dominant-baseline:hanging;font-family:sans-serif;font-size:13.3333px;perspective-origin:12.6719px 0px;stroke:rgb(0, 0, 0);stroke-width:0px;">mux</text><g transform="translate(-5, 40.75)"><rect x="0" y="0" width="5" height="5" style="fill:rgb(102, 102, 204);stroke:rgb(68, 68, 136);"/><text transform="translate(6, -5.5)" style="dominant-baseline:hanging;font-family:sans-serif;font-size:13.3333px;perspective-origin:8.51562px 0px;stroke:rgb(0, 0, 0);stroke-width:0px;">sel</text></g><g transform="translate(-5, 25.5)"><rect x="0" y="0" width="5" height="5" style="fill:rgb(102, 102, 204);stroke:rgb(68, 68, 136);"/><text transform="translate(6, -5.5)" style="dominant-baseline:hanging;font-family:sans-serif;font-size:13.3333px;perspective-origin:8.89062px 0px;stroke:rgb(0, 0, 0);stroke-width:0px;">in2</text></g><g transform="translate(-5, 10.25)"><rect x="0" y="0" width="5" height="5" style="fill:rgb(102, 102, 204);stroke:rgb(68, 68, 136);"/><text transform="translate(6, -5.5)" style="dominant-baseline:hanging;font-family:sans-serif;font-size:13.3333px;perspective-origin:8.89062px 0px;stroke:rgb(0, 0, 0);stroke-width:0px;">in1</text></g><g transform="translate(32, 25.5)"><rect x="0" y="0" width="5" height="5" style="fill:rgb(102, 102, 204);stroke:rgb(68, 68, 136);"/></g></g><g transform="translate(109, 85.25)"><rect x="0" y="0" width="32" height="56" style="fill:rgb(221, 221, 255);stroke:rgb(68, 68, 136);"/><text transform="translate(2.5, -21)" style="dominant-baseline:hanging;font-family:sans-serif;font-size:13.3333px;perspective-origin:12.6719px 0px;stroke:rgb(0, 0, 0);stroke-width:0px;">mux</text><g transform="translate(-5, 40.75)"><rect x="0" y="0" width="5" height="5" style="fill:rgb(102, 102, 204);stroke:rgb(68, 68, 136);"/><text transform="translate(6, -5.5)" style="dominant-baseline:hanging;font-family:sans-serif;font-size:13.3333px;perspective-origin:8.51562px 0px;stroke:rgb(0, 0, 0);stroke-width:0px;">sel</text></g><g transform="translate(-5, 25.5)"><rect x="0" y="0" width="5" height="5" style="fill:rgb(102, 102, 204);stroke:rgb(68, 68, 136);"/><text transform="translate(6, -5.5)" style="dominant-baseline:hanging;font-family:sans-serif;font-size:13.3333px;perspective-origin:8.89062px 0px;stroke:rgb(0, 0, 0);stroke-width:0px;">in2</text></g><g transform="translate(-5, 10.25)"><rect x="0" y="0" width="5" height="5" style="fill:rgb(102, 102, 204);stroke:rgb(68, 68, 136);"/><text transform="translate(6, -5.5)" style="dominant-baseline:hanging;font-family:sans-serif;font-size:13.3333px;perspective-origin:8.89062px 0px;stroke:rgb(0, 0, 0);stroke-width:0px;">in1</text></g><g transform="translate(32, 25.5)"><rect x="0" y="0" width="5" height="5" style="fill:rgb(102, 102, 204);stroke:rgb(68, 68, 136);"/></g></g><g transform="translate(171, 153.75000000000003)"><rect x="0" y="0" width="32" height="56" style="fill:rgb(221, 221, 255);stroke:rgb(68, 68, 136);"/><text transform="translate(2.5, -21)" style="dominant-baseline:hanging;font-family:sans-serif;font-size:13.3333px;perspective-origin:12.6719px 0px;stroke:rgb(0, 0, 0);stroke-width:0px;">mux</text><g transform="translate(-5, 40.75)"><rect x="0" y="0" width="5" height="5" style="fill:rgb(102, 102, 204);stroke:rgb(68, 68, 136);"/><text transform="translate(6, -5.5)" style="dominant-baseline:hanging;font-family:sans-serif;font-size:13.3333px;perspective-origin:8.51562px 0px;stroke:rgb(0, 0, 0);stroke-width:0px;">sel</text></g><g transform="translate(-5, 25.5)"><rect x="0" y="0" width="5" height="5" style="fill:rgb(102, 102, 204);stroke:rgb(68, 68, 136);"/><text transform="translate(6, -5.5)" style="dominant-baseline:hanging;font-family:sans-serif;font-size:13.3333px;perspective-origin:8.89062px 0px;stroke:rgb(0, 0, 0);stroke-width:0px;">in2</text></g><g transform="translate(-5, 10.25)"><rect x="0" y="0" width="5" height="5" style="fill:rgb(102, 102, 204);stroke:rgb(68, 68, 136);"/><text transform="translate(6, -5.5)" style="dominant-baseline:hanging;font-family:sans-serif;font-size:13.3333px;perspective-origin:8.89062px 0px;stroke:rgb(0, 0, 0);stroke-width:0px;">in1</text></g><g transform="translate(32, 25.5)"><rect x="0" y="0" width="5" height="5" style="fill:rgb(102, 102, 204);stroke:rgb(68, 68, 136);"/></g></g><g transform="translate(233, 153.75000000000003)"><rect x="0" y="0" width="32" height="56" style="fill:rgb(221, 221, 255);stroke:rgb(68, 68, 136);"/><text transform="translate(2.5, -21)" style="dominant-baseline:hanging;font-family:sans-serif;font-size:13.3333px;perspective-origin:12.6719px 0px;stroke:rgb(0, 0, 0);stroke-width:0px;">mux</text><g transform="translate(-5, 40.75)"><rect x="0" y="0" width="5" height="5" style="fill:rgb(102, 102, 204);stroke:rgb(68, 68, 136);"/><text transform="translate(6, -5.5)" style="dominant-baseline:hanging;font-family:sans-serif;font-size:13.3333px;perspective-origin:8.51562px 0px;stroke:rgb(0, 0, 0);stroke-width:0px;">sel</text></g><g transform="translate(-5, 25.5)"><rect x="0" y="0" width="5" height="5" style="fill:rgb(102, 102, 204);stroke:rgb(68, 68, 136);"/><text transform="translate(6, -5.5)" style="dominant-baseline:hanging;font-family:sans-serif;font-size:13.3333px;perspective-origin:8.89062px 0px;stroke:rgb(0, 0, 0);stroke-width:0px;">in2</text></g><g transform="translate(-5, 10.25)"><rect x="0" y="0" width="5" height="5" style="fill:rgb(102, 102, 204);stroke:rgb(68, 68, 136);"/><text transform="translate(6, -5.5)" style="dominant-baseline:hanging;font-family:sans-serif;font-size:13.3333px;perspective-origin:8.89062px 0px;stroke:rgb(0, 0, 0);stroke-width:0px;">in1</text></g><g transform="translate(32, 25.5)"><rect x="0" y="0" width="5" height="5" style="fill:rgb(102, 102, 204);stroke:rgb(68, 68, 136);"/></g></g><g transform="translate(184, 86.75000000000003)"><rect x="0" y="0" width="19" height="26" style="fill:rgb(221, 221, 255);stroke:rgb(68, 68, 136);"/><text transform="translate(5, 5)" style="dominant-baseline:hanging;font-family:sans-serif;font-size:13.3333px;perspective-origin:3.84375px 0px;stroke:rgb(0, 0, 0);stroke-width:0px;">0</text></g><g><path d="M 394,250 L 414,250" style="fill:none;stroke:rgb(34, 34, 68);"/><path d="M 0,0 L 8,-3 L 8,3 Z" transform="rotate(180 414 250) translate(414 250)" style="fill:rgb(51, 51, 102);stroke:rgb(34, 34, 68);"/></g><g><path d="M 331,181.75000000000003 L 342,181.75000000000003 L 342,14.5 L 617,14.5" style="fill:none;stroke:rgb(34, 34, 68);"/><path d="M 0,0 L 8,-3 L 8,3 Z" transform="rotate(180 617 14.5) translate(617 14.5)" style="fill:rgb(51, 51, 102);stroke:rgb(34, 34, 68);"/></g><g><path d="M 146,113.25 L 156,113.25 L 156,181.75000000000003 L 166,181.75000000000003" style="fill:none;stroke:rgb(34, 34, 68);"/><path d="M 0,0 L 8,-3 L 8,3 Z" transform="rotate(180 166 181.75000000000003) translate(166 181.75000000000003)" style="fill:rgb(51, 51, 102);stroke:rgb(34, 34, 68);"/></g><g><path d="M 394,347.00000000000006 L 404,347.00000000000006 L 404,265.25 L 414,265.25" style="fill:none;stroke:rgb(34, 34, 68);"/><path d="M 0,0 L 8,-3 L 8,3 Z" transform="rotate(180 414 265.25) translate(414 265.25)" style="fill:rgb(51, 51, 102);stroke:rgb(34, 34, 68);"/></g><g><path d="M -5,68.5 L 94,68.5 L 94,98 L 104,98" style="fill:none;stroke:rgb(34, 34, 68);"/><path d="M 0,0 L 8,-3 L 8,3 Z" transform="rotate(180 104 98) translate(104 98)" style="fill:rgb(51, 51, 102);stroke:rgb(34, 34, 68);"/></g><g><path d="M 332,347.00000000000006 L 342,347.00000000000006 L 342,265.25 L 352,265.25" style="fill:none;stroke:rgb(34, 34, 68);"/><path d="M 0,0 L 8,-3 L 8,3 Z" transform="rotate(180 352 265.25) translate(352 265.25)" style="fill:rgb(51, 51, 102);stroke:rgb(34, 34, 68);"/></g><g><path d="M 270,181.75000000000003 L 291,181.75000000000003" style="fill:none;stroke:rgb(34, 34, 68);"/><path d="M 0,0 L 8,-3 L 8,3 Z" transform="rotate(180 291 181.75000000000003) translate(291 181.75000000000003)" style="fill:rgb(51, 51, 102);stroke:rgb(34, 34, 68);"/></g><g><path d="M -5,385.00000000000006 L 22,385.00000000000006 L 22,325.1666666666667 L 104,325.1666666666667" style="fill:none;stroke:rgb(34, 34, 68);"/><path d="M 0,0 L 8,-3 L 8,3 Z" transform="rotate(180 104 325.1666666666667) translate(104 325.1666666666667)" style="fill:rgb(51, 51, 102);stroke:rgb(34, 34, 68);"/><g transform="translate(22, 385.00000000000006)"><circle r="2" style="fill:rgb(34, 34, 68);"/></g><g transform="translate(22, 325.1666666666667)"><circle r="2" style="fill:rgb(34, 34, 68);"/></g></g><g><path d="M -5,385.00000000000006 L 342,385.00000000000006 L 342,357.1666666666667 L 352,357.1666666666667" style="fill:none;stroke:rgb(34, 34, 68);"/><path d="M 0,0 L 8,-3 L 8,3 Z" transform="rotate(180 352 357.1666666666667) translate(352 357.1666666666667)" style="fill:rgb(51, 51, 102);stroke:rgb(34, 34, 68);"/><g transform="translate(342, 385.00000000000006)"><circle r="2" style="fill:rgb(34, 34, 68);"/></g></g><g><path d="M 331,181.75000000000003 L 342,181.75000000000003 L 342,250.00000000000003 L 352,250" style="fill:none;stroke:rgb(34, 34, 68);"/><path d="M 0,0 L 8,-3 L 8,3 Z" transform="rotate(179.99999999999986 352 250) translate(352 250)" style="fill:rgb(51, 51, 102);stroke:rgb(34, 34, 68);"/><g transform="translate(342, 181.75000000000003)"><circle r="2" style="fill:rgb(34, 34, 68);"/></g></g><g><path d="M 74,128.5 L 104,128.5" style="fill:none;stroke:rgb(34, 34, 68);"/><path d="M 0,0 L 8,-3 L 8,3 Z" transform="rotate(180 104 128.5) translate(104 128.5)" style="fill:rgb(51, 51, 102);stroke:rgb(34, 34, 68);"/></g><g><path d="M 456,250 L 476,250" style="fill:none;stroke:rgb(34, 34, 68);"/><path d="M 0,0 L 8,-3 L 8,3 Z" transform="rotate(180 476 250) translate(476 250)" style="fill:rgb(51, 51, 102);stroke:rgb(34, 34, 68);"/></g><g><path d="M 389,168.00000000000003 L 404,168.00000000000003 L 404,234.75000000000003 L 414,234.75" style="fill:none;stroke:rgb(34, 34, 68);"/><path d="M 0,0 L 8,-3 L 8,3 Z" transform="rotate(179.99999999999986 414 234.75) translate(414 234.75)" style="fill:rgb(51, 51, 102);stroke:rgb(34, 34, 68);"/></g><g><path d="M 208,181.75000000000003 L 228,181.75000000000003" style="fill:none;stroke:rgb(34, 34, 68);"/><path d="M 0,0 L 8,-3 L 8,3 Z" transform="rotate(180 228 181.75000000000003) translate(228 181.75000000000003)" style="fill:rgb(51, 51, 102);stroke:rgb(34, 34, 68);"/></g><g><path d="M -5,166.50000000000003 L 166,166.50000000000003" style="fill:none;stroke:rgb(34, 34, 68);"/><path d="M 0,0 L 8,-3 L 8,3 Z" transform="rotate(180 166 166.50000000000003) translate(166 166.50000000000003)" style="fill:rgb(51, 51, 102);stroke:rgb(34, 34, 68);"/></g><g><path d="M -5,385.00000000000006 L 22,385.00000000000006 L 22,138.66666666666666 L 32,138.66666666666666" style="fill:none;stroke:rgb(34, 34, 68);"/><path d="M 0,0 L 8,-3 L 8,3 Z" transform="rotate(180 32 138.66666666666666) translate(32 138.66666666666666)" style="fill:rgb(51, 51, 102);stroke:rgb(34, 34, 68);"/></g><g><path d="M 518,374.83333333333337 L 528,374.83333333333337 L 528,265.25 L 538,265.25" style="fill:none;stroke:rgb(34, 34, 68);"/><path d="M 0,0 L 8,-3 L 8,3 Z" transform="rotate(180 538 265.25) translate(538 265.25)" style="fill:rgb(51, 51, 102);stroke:rgb(34, 34, 68);"/></g><g><path d="M -5,385.00000000000006 L 280,385.00000000000006 L 280,357.1666666666667 L 290,357.1666666666667" style="fill:none;stroke:rgb(34, 34, 68);"/><path d="M 0,0 L 8,-3 L 8,3 Z" transform="rotate(180 290 357.1666666666667) translate(290 357.1666666666667)" style="fill:rgb(51, 51, 102);stroke:rgb(34, 34, 68);"/><g transform="translate(280, 385.00000000000006)"><circle r="2" style="fill:rgb(34, 34, 68);"/></g></g><g><path d="M 518,250 L 538,250" style="fill:none;stroke:rgb(34, 34, 68);"/><path d="M 0,0 L 8,-3 L 8,3 Z" transform="rotate(180 538 250) translate(538 250)" style="fill:rgb(51, 51, 102);stroke:rgb(34, 34, 68);"/></g><g><path d="M 327,234.75000000000003 L 352,234.75" style="fill:none;stroke:rgb(34, 34, 68);"/><path d="M 0,0 L 8,-3 L 8,3 Z" transform="rotate(179.99999999999994 352 234.75) translate(352 234.75)" style="fill:rgb(51, 51, 102);stroke:rgb(34, 34, 68);"/></g><g><path d="M 456,347.00000000000006 L 466,347.00000000000006 L 466,265.25 L 476,265.25" style="fill:none;stroke:rgb(34, 34, 68);"/><path d="M 0,0 L 8,-3 L 8,3 Z" transform="rotate(180 476 265.25) translate(476 265.25)" style="fill:rgb(51, 51, 102);stroke:rgb(34, 34, 68);"/></g><g><path d="M 451,168.00000000000003 L 466,168.00000000000003 L 466,234.75000000000003 L 476,234.75" style="fill:none;stroke:rgb(34, 34, 68);"/><path d="M 0,0 L 8,-3 L 8,3 Z" transform="rotate(179.99999999999986 476 234.75) translate(476 234.75)" style="fill:rgb(51, 51, 102);stroke:rgb(34, 34, 68);"/></g><g><path d="M 203,99.75000000000003 L 218,99.75000000000003 L 218,166.50000000000003 L 228,166.50000000000003" style="fill:none;stroke:rgb(34, 34, 68);"/><path d="M 0,0 L 8,-3 L 8,3 Z" transform="rotate(180 228 166.50000000000003) translate(228 166.50000000000003)" style="fill:rgb(51, 51, 102);stroke:rgb(34, 34, 68);"/></g><g><path d="M 580,250 L 590,250.00000000000003 L 590,25.5 L 84,25.5 L 84,113.25 L 104,113.25" style="fill:none;stroke:rgb(34, 34, 68);"/><path d="M 0,0 L 8,-3 L 8,3 Z" transform="rotate(180 104 113.25) translate(104 113.25)" style="fill:rgb(51, 51, 102);stroke:rgb(34, 34, 68);"/></g><g><path d="M -5,353.00000000000006 L 218,353.00000000000006 L 218,197.00000000000003 L 228,197.00000000000003" style="fill:none;stroke:rgb(34, 34, 68);"/><path d="M 0,0 L 8,-3 L 8,3 Z" transform="rotate(180 228 197.00000000000003) translate(228 197.00000000000003)" style="fill:rgb(51, 51, 102);stroke:rgb(34, 34, 68);"/></g><g><path d="M -5,36.5 L 528,36.5 L 528,234.75000000000003 L 538,234.75" style="fill:none;stroke:rgb(34, 34, 68);"/><path d="M 0,0 L 8,-3 L 8,3 Z" transform="rotate(179.99999999999986 538 234.75) translate(538 234.75)" style="fill:rgb(51, 51, 102);stroke:rgb(34, 34, 68);"/></g><g><path d="M -5,385.00000000000006 L 476,385.00000000000006" style="fill:none;stroke:rgb(34, 34, 68);"/><path d="M 0,0 L 8,-3 L 8,3 Z" transform="rotate(180 476 385.00000000000006) translate(476 385.00000000000006)" style="fill:rgb(51, 51, 102);stroke:rgb(34, 34, 68);"/></g><g><path d="M 146,315.00000000000006 L 156,315.00000000000006 L 156,197.00000000000003 L 166,197.00000000000003" style="fill:none;stroke:rgb(34, 34, 68);"/><path d="M 0,0 L 8,-3 L 8,3 Z" transform="rotate(180 166 197.00000000000003) translate(166 197.00000000000003)" style="fill:rgb(51, 51, 102);stroke:rgb(34, 34, 68);"/></g><g><path d="M -5,385.00000000000006 L 404,385.00000000000006 L 404,357.1666666666667 L 414,357.1666666666667" style="fill:none;stroke:rgb(34, 34, 68);"/><path d="M 0,0 L 8,-3 L 8,3 Z" transform="rotate(180 414 357.1666666666667) translate(414 357.1666666666667)" style="fill:rgb(51, 51, 102);stroke:rgb(34, 34, 68);"/><g transform="translate(404, 385.00000000000006)"><circle r="2" style="fill:rgb(34, 34, 68);"/></g></g></g></g></svg>